<svg xmlns="http://www.w3.org/2000/svg" width="300" height="502.13" viewBox="0 0 300 502.13"><defs><style>.a{fill:#b1b1b1;}.b{fill:#c5c5c5;}.c{fill:#8b8b8b;}.d{fill:#949494;}.e{fill:#9e9e9e;}.f{fill:#777;}.g{fill:#a8a8a8;}</style></defs><title>Built-By-Bearded</title><path class="a" d="M150.94,501.34l1.26-11h5.52l1,11h9.87l-8.61-64.46h-9.39l-8.61,64.46h9Zm3.1-60.49h2.42l7.35,56.62h-1.45l-1.35-11H149.29l-1.45,11h-1.45ZM82.21,400.32l-1.09,5.47L95.33,420h32.25l14.22-14.21-1.09-5.47V352.21l2.73-8.75H118.29l2.73,8.75V395.4l-2.19,4.37L114.47,402h-4.38l-4.38-2.19-2.18-4.37V352.21l2.73-8.75H79.48l2.73,8.75v48.11ZM257.6,446.17v-9.29h-21v64.46h21V492H246.66V472.59h7.26v-8.81h-7.26V446.17H257.6Zm-7,21.29v1.45H242.4V496h11.33v1.45H240.85V440.85h12.87v1.45H242.4v25.16h8.23ZM210.37,442.3V496h7c4,0,6.39-2.23,6.39-7.07V449.46c0-4.45-2.13-7.16-6.39-7.16h-7Zm9.19,7.16v39.29c0,2.32-.87,3.39-2.61,3.39h-2.32v-46h2.32C218.69,446.17,219.56,447.24,219.56,449.46Zm-15-12.58v64.46h13.26c6.1,0,11.71-3.19,11.71-12.19V449.46c0-9-5.61-12.58-11.71-12.58H204.56Zm20.71,12.58V489c0,5.32-3,8.52-7.94,8.52h-8.52V440.85h8.52C222.27,440.85,225.27,444.24,225.27,449.46ZM194.21,420H239l7.43-22.41-11.26,3.83H219.9l-1.64-1.64V353.31l3.28-9.84H194.21l2.73,8.75v59Zm-2.33,43.1V448.49c0-3.58-1.64-6.39-5.32-6.39H179.3V469.5h5.81C189.75,469.5,191.88,467.37,191.88,463.11ZM183.56,446h2.32c1.36,0,1.94.87,1.94,2.81v14.32c0,2-.48,2.81-1.84,2.81h-2.42V446Zm-28.95-26H181.4l-2.73-8.75v-59l2.73-8.75H154.61l2.73,8.75v59Zm0.59,22.3L149.49,485h11.32Zm0.09,20.91,1.55,17.91h-3.58Zm18.2,38.13h10.07V474.43h2.32c1.74,0,2.23,1.06,2.23,2.9v14c0,4.84.48,7.45,1.36,10H199a49.59,49.59,0,0,1-1.26-10.74V477.53a8.11,8.11,0,0,0-3.68-7.36c2.61-1.74,3.39-4.26,3.39-7.26V448.2c0-8.42-5.52-11.32-10.45-11.32H173.49v64.46Zm4.26-60.59h8.81c4.74,0,6.78,3.58,6.78,7.74v14.62c0,3.78-1.26,6-4.84,7.16,4.16,1.06,5.13,4.35,5.13,7.16V491a47.56,47.56,0,0,0,.58,6.48h-1.55a35.87,35.87,0,0,1-.58-6.48V477.43c0-4.26-2.71-6.58-7-6.58H179.3v26.62h-1.55V440.75Zm-39.1,5.42v-9.29h-21v64.46h21V492H127.71V472.59H135v-8.81h-7.26V446.17h10.94Zm-7,21.29v1.45h-8.23V496h11.32v1.45H121.91V440.85h12.87v1.45H123.45v25.16h8.23ZM276,442.3h-7V496h7c4,0,6.39-2.23,6.39-7.07V449.46C282.38,445,280.25,442.3,276,442.3Zm2.23,46.46c0,2.32-.87,3.39-2.61,3.39h-2.32v-46h2.32c1.74,0,2.61,1.06,2.61,3.29v39.29ZM38.89,493.47l-4.66,3v3.67l2,2h4l2.67-2.67v-2l-1.33-1.33H40.22l0.66,1.33-0.66,1.33-1.33.66H37.55l-0.67-1.33,0.67-1.33,2.66-2.66,4-2,24-6h1.33l1.33,0.67v-4L9.57,498.13l-2.66-.66v2h8Zm53.6-23.88v26.52h7.26c3.68,0,5.32-2.81,5.32-6.29V475.88c0-4.35-2.13-6.29-6.77-6.29H92.48Zm8.52,6.19v13.65c0,1.94-.58,2.81-1.94,2.81H96.74V473h2.42C100.52,473,101,473.76,101,475.79ZM8.1,420H56.76l13.12-13.12V387.75l-9.29-9.29,8.2-8.2V355.49l-12-12H8.1l2.73,8.75v59Zm23.51-59,1.1-1.09H42l3.28,1.64,1.64,3.28V367l-1.64,3.28L42,371.89H32.7l-1.1-1.09V361Zm0,28.43,1.1-1.09h8.75l4.37,2.19,1.64,3.28v3.83l-1.64,3.28-4.37,2.19h-8.2l-1.64-1.64v-12Zm261.06-45.92H244l-7.32,21.87,11.37-3.83h8.53l1.09,1.09v45.92L253.86,420h29L279,408.52V362.6l1.09-1.09h8.53L300,365.34Zm-16.2,93.42H263.21v64.46h13.26c6.1,0,11.71-3.19,11.71-12.19V449.46C288.18,440.46,282.57,436.88,276.47,436.88ZM283.93,489c0,5.32-3,8.52-7.94,8.52h-8.52V440.85H276c4.93,0,7.94,3.39,7.94,8.61V489ZM99.74,442.11H92.48v26h5.81c4.65,0,6.77-1.94,6.77-6.19V448.49C105.06,444.91,103.42,442.11,99.74,442.11ZM101,461.95c0,2-.48,2.81-1.84,2.81H96.74V446h2.32c1.36,0,1.94.87,1.94,2.81v13.16Zm9.68-1.26V448.2c0-8.42-5.52-11.32-10.45-11.32H86.67v64.46h13.55c4.94,0,10.45-2.9,10.45-11.32V476.37c0-3.29-.77-5.91-3.58-7.84C109.9,466.59,110.68,464,110.68,460.69Zm-4.07,1.26c0,3.77-1.35,5.81-4.93,7,3.58,1.07,4.93,3.19,4.93,7v13.94c0,4.07-2.13,7.74-6.87,7.74H90.93V440.75h8.81c4.74,0,6.87,3.58,6.87,7.74v13.45ZM63.07,450.46q1.22-1.87,2.44-3.69a50.59,50.59,0,0,0-8.2.69l-0.44,3.22q-2.1,4.63-4.21,9.37l-0.22.95-0.22-.85q-2.1-3.78-4.21-7.43l-0.44-3c-3,.86-5.91,1.84-8.86,2.83l2.44,2.74c2.66,4.23,5.32,8.55,8,13v8.28L47.78,481a84,84,0,0,1,9.3-1.89q-0.66-1.94-1.33-3.86v-8.78C58.2,461,60.63,455.64,63.07,450.46Zm9-10.73v-2h-8l-24,6,4.66-3v-3.67l-2-2h-4l-2.66,2.67v2l1.33,1.33h1.33l-0.66-1.33,0.66-1.33,1.33-.67h1.33l0.66,1.33-0.66,1.33-2.67,2.67-4,2-24,6H9.45l-1.33-.66v4l61.29-15.32ZM14.55,488.41c5.91,0,11.82-1.33,17.73-3,1.77-2.25,3.55-4.55,5.32-6.86v-7.73l-3.77-2.56,3.33-4.36v-6l-4.88-3.24c-5.91,1.89-11.82,3.52-17.73,3.79l0.89,3.37V485Zm7.54-25.51,0.44-.52c1.77-.37,3.55-0.81,5.32-1.31l1.77,0.37,0.89,1.49v1.31l-0.89,2-1.77,1.37c-1.77.48-3.54,0.91-5.32,1.26l-0.44-.34V462.9Zm0,11.68,0.44-.51c1.62-.31,3.25-0.69,4.87-1.1l2.22,0.49L30.5,475v2.63l-0.89,2-2.22,1.67c-1.55.38-3.1,0.72-4.65,1l-0.66-.53v-7.14Z"/><path class="b" d="M253.95,189.86a17.19,17.19,0,0,1,7.83-5.66,15.94,15.94,0,0,1,4-.89l-1.27-1.18-1.94-1.8c-5.52-5.11-12-11.07-15.74-18.74a16.55,16.55,0,0,1-5.78,7.25,41.32,41.32,0,0,1,9.54,11.82A28.32,28.32,0,0,1,253.95,189.86Z"/><path class="c" d="M152.21,127.25c1.07,8.44,4.67,9,12,10.21a58.11,58.11,0,0,1,12.67,3.17c8.74,3.46,15.7,9.16,22.42,14.67,5.05,4.14,9.9,8.11,14.94,10.5a36.22,36.22,0,0,0,13.38,2.7c8.18,0,12.34-3.08,14.46-6.21a19.7,19.7,0,0,1-8.49,1.7,31,31,0,0,1-3.33-.19c-13.36-1.45-18.15-7.1-26.07-16.47-3.33-3.94-7.48-8.84-13.18-14.47-9.56-9.45-23.14-16.57-31.6-16.57-2.56,0-4.47.66-5.67,1.95a6.37,6.37,0,0,0-1.46,3C151.83,122.75,152.12,125.86,152.21,127.25Z"/><path class="b" d="M228.92,184.47a15.55,15.55,0,0,1,6.37,1.84c-2.85-5.69-7.48-11.1-17.32-14.91q-0.68-.16-1.34-0.37a17,17,0,0,1,3.73,5.62c1.15,2.86.81,6.5,0.07,9.7A15.49,15.49,0,0,1,228.92,184.47Z"/><path class="b" d="M159.37,112.29c9.55,0,24,7.45,34.41,17.73,5.82,5.76,10,10.73,13.41,14.74,7.78,9.19,11.68,13.81,23.45,15.08a26.66,26.66,0,0,0,2.9.16c5.48,0,8.32-1.92,9.69-3.38a14.66,14.66,0,0,1-4.32.64,16.31,16.31,0,0,1-3.12-.31c-8-1.56-15.81-8.75-23.24-21.37-12.16-20.65-28.48-33.37-43.66-34-6.32-.26-10.78,1.13-13.26,4.15a12,12,0,0,0-2.35,7.87A13,13,0,0,1,159.37,112.29Z"/><path class="d" d="M176.24,186.83a17.42,17.42,0,0,0-4.55,8.37,19.57,19.57,0,0,0,.16,8.65,9.08,9.08,0,0,0,.79,2.13c2.22-4.64,5.76-9.57,9.24-14.39,3.81-5.29,7.75-10.75,8.3-14,0.63-3.79.19-6.79-1.28-8.67-1.2-1.54-3.16-2.44-5.81-2.65a28,28,0,0,0-4.09,0,11.33,11.33,0,0,1,1.7,2.24c1.9,3.3,2,7.31.2,11.3A26.71,26.71,0,0,1,176.24,186.83Z"/><path class="e" d="M198.53,196.09c-2.46,3.25-4.82,6.38-6.24,9.87a13,13,0,0,1,8.77-3.36,20.6,20.6,0,0,1,10.3,2.72h0a26.83,26.83,0,0,1,1-8.26,51.73,51.73,0,0,1,1.83-4.89c1.21-2.58,4-10.14,2.44-14-1.91-4.74-6.44-7.43-10.27-8.91a20.47,20.47,0,0,1,.84,8.22C206.75,185.21,202.57,190.74,198.53,196.09Z"/><path class="b" d="M42.42,119.75c3.87,4.31,9.51,12.5,11.64,25.26a28,28,0,0,1,.32,2.79,32.2,32.2,0,0,0,2.42-19,23.27,23.27,0,0,0-5.17-11.6A22.68,22.68,0,0,1,42.42,119.75Z"/><path class="b" d="M57.75,112.32A21,21,0,0,1,55,115a26.84,26.84,0,0,1,5.37,11.29,30.07,30.07,0,0,0,.6-8.95,25.89,25.89,0,0,0-1.85-6.83C58.68,111.14,58.23,111.74,57.75,112.32Z"/><path class="b" d="M86,169.72a14.31,14.31,0,0,0-5.31,3.09,36,36,0,0,1,4.84,10.83,32.93,32.93,0,0,1,6.17-13.6A8.11,8.11,0,0,0,86,169.72Z"/><path class="b" d="M163,184.07a9.66,9.66,0,0,0-1.31,2.15,2.27,2.27,0,0,1,0,.23c1.91,2.7,4,5.68,5.84,8.87,0.06-.35.13-0.69,0.21-1a21.26,21.26,0,0,1,5.4-10,22.63,22.63,0,0,0,4-6,8.34,8.34,0,0,0,0-7.68,8.57,8.57,0,0,0-6.72-4,7.85,7.85,0,0,0-4.87.87,13,13,0,0,1,1.27,7.4A18.09,18.09,0,0,1,163,184.07Z"/><path class="b" d="M93.23,243.6a18.09,18.09,0,0,1,7.94-.2,18.33,18.33,0,0,1,5.93,2.27c-1.95-5.06-4.79-11-8.26-18.07-7.21-14.68-12-24.86-13.51-32.85a29.59,29.59,0,0,1-6.92,11.33,13.84,13.84,0,0,1,4.35,2.19c2.55,1.89,6.91,6.39,7.42,15.29a19.18,19.18,0,0,1-6.8,15.61C87.3,239.77,91.37,241.48,93.23,243.6Z"/><path class="b" d="M72,157.11c12.08-1.57,15.12-5.3,21.78-13.49a171.89,171.89,0,0,1,13.36-15c9.88-9.77,23.9-16.86,33.34-16.86a13.37,13.37,0,0,1,6.74,1.59c0.11-2.3-.18-5.42-2.13-7.79-2.42-2.93-6.91-4.17-13.35-3.69-16,1.2-32,13.47-43.92,33.66C80.9,147.37,73.3,154,65.25,155.36a17.76,17.76,0,0,1-2.91.24,17.16,17.16,0,0,1-3.48-.36,23.58,23.58,0,0,0,9.78,2.09A26.43,26.43,0,0,0,72,157.11Z"/><path class="c" d="M76,167.34a34,34,0,0,0,10.32-1.79c4.87-1.49,10.51-6.08,15.85-10.69,5.75-5,12.27-10.61,21.41-14.22a58.08,58.08,0,0,1,12.66-3.17c7.29-1.18,10.89-1.77,12-10.21,0.05-.58.46-4.28,0-6.06a6.77,6.77,0,0,0-1.58-3.28c-1.3-1.4-3.35-2.1-6.1-2.1-8.35,0-21.48,6.75-30.53,15.7a168.17,168.17,0,0,0-13.07,14.64c-6.9,8.48-10.71,13.16-24.37,14.93a30.49,30.49,0,0,1-3.89.25,27.67,27.67,0,0,1-10.2-1.91A22.61,22.61,0,0,0,76,167.34Z"/><path class="b" d="M62.71,201.61c-5.47,5.63-11.13,11.46-10.93,22.47,0.13,7.16,3.19,11.4,5.74,13.68,3.77,3.39,9.52,4.61,16,2.88A16.7,16.7,0,0,0,86.2,223.78c-0.42-7.27-3.82-10.83-5.81-12.31-2.36-1.75-4.57-2-5.86-1.73-6,1.45-8.52,6.32-7.87,10.18a4.47,4.47,0,0,0,5.12,4,2,2,0,0,1,.38,4,8.38,8.38,0,0,1-9.43-7.3c-0.91-5.45,2.34-12.24,10.1-14.5,0.23-.24.51-0.53,0.85-0.87,2.8-2.79,8.64-8.61,8.53-16.44-0.13-8.86-7.41-17.26-7.49-17.35l-0.1-.14A27,27,0,0,1,67,169.87c2.34,4.36,4.91,10.44,4.74,15.91C71.53,192.52,67.25,196.94,62.71,201.61Z"/><path class="e" d="M267.13,126.13c6.55-2.52,10.74-7.68,10.93-13.48,0.3-8.93-3.18-19.93-8.66-27.39-8.87-12.05-7.81-18.37-4.94-21.62a24.69,24.69,0,0,1-5.24-12c-1.37,1.33-3.08,4-3.86,9.33-1.85,12.66,3.38,20.9,8,28.17,3,4.76,5.85,9.25,5.93,14.14,0.14,8.87-4.55,11.26-6.58,11.88a8.62,8.62,0,0,1-2.53.37,9.1,9.1,0,0,1-7.55-3.92c-1.76-2.71-1.4-6,1-8.71a2,2,0,0,1,3,2.62c-1.22,1.4-1.44,2.72-.65,3.92a5.19,5.19,0,0,0,5.57,1.91c2.49-.76,3.82-3.6,3.75-8a12.75,12.75,0,0,0-1.22-4.9L264,98.36a11,11,0,0,0-7.72-5.72A12,12,0,0,0,246,96.52c-6.79,7-6.22,18.48.65,25.6C252.81,128.52,261.27,128.39,267.13,126.13Z"/><path class="f" d="M256.83,88.68a12.86,12.86,0,0,1,1.73.37c-3.3-5.33-6.72-11.63-7.44-19.83A18.76,18.76,0,0,0,247,80c-0.56,6.33.56,9.38,1.14,10.49A13.36,13.36,0,0,1,256.83,88.68Z"/><path class="b" d="M249.14,129a21.74,21.74,0,0,1-5.38-4.09,23,23,0,0,1-2.35-2.87c-0.84,2-1.75,5.8-1.22,12.42a27.43,27.43,0,0,0,3.37,11.9C243.8,137.44,247,131.82,249.14,129Z"/><path class="b" d="M279.36,36a13.62,13.62,0,0,1,1.31-.39,16,16,0,0,1,7.36.06,11.25,11.25,0,0,0,1.73-6.52,15.24,15.24,0,0,0-1.08-4.85,54.31,54.31,0,0,1-5.87,7.57C281.57,33.29,280.38,34.63,279.36,36Z"/><path class="c" d="M247.09,182.57a36.47,36.47,0,0,0-9.89-11.68,25.63,25.63,0,0,1-8.44,1.58c6.61,4.8,9.91,10.84,12.23,17,2.19,5.85,2.23,11,.09,14.49a9.6,9.6,0,0,1-7.43,4.45,8.68,8.68,0,0,1-1,.06c-5,0-7.17-4.56-7.67-7.12a2,2,0,1,1,3.92-.75c0.09,0.42,1,4.24,4.28,3.85a5.7,5.7,0,0,0,4.49-2.56,8.3,8.3,0,0,0,1-4.57c-0.86-6.14-6.1-8.59-10-8.87-4.42-.31-10.32,2-12.41,9.67-1.68,6.18-.68,11.23,2.26,15.08a17.12,17.12,0,0,0,13.18,6.38c7.12,0,18.29-6.36,19.29-17.25C251.78,193.36,250.54,188.95,247.09,182.57Z"/><path class="b" d="M272.77,18.38l0.28-.31c2-2.19,4.45-4.75,6.13-6.83,0-.34-0.7-2.14-2.54-4.76-1.11-1.59-4.05-4-8-6.48,2,3.63,3.92,8.16,4.2,12.54A33.77,33.77,0,0,1,272.77,18.38Z"/><path class="b" d="M278.73,11.6v0l0,0h0Z"/><path class="b" d="M249.34,228.72l0.2,0a32.11,32.11,0,0,1-3.91-10.07,24.78,24.78,0,0,1-9.58,4.39A27.53,27.53,0,0,0,249.34,228.72Z"/><path class="b" d="M122.72,169.49a16.56,16.56,0,0,0-6.29,13c-0.21,7.95,6.23,15.59,8.76,18.28a18.05,18.05,0,0,1,6.93-3.76c-4.92-4.49-8.16-9.58-7.19-19.22a17.59,17.59,0,0,1,6-11.32c-0.2-.05-0.41-0.11-0.66-0.16C129.43,166.18,126.07,166.83,122.72,169.49Z"/><path class="c" d="M139,166.67c-2.65,0-9.39,4.49-10.12,11.56-0.88,8.69,1.74,12.56,8.34,17.95h0.16a26.69,26.69,0,0,1,10.11,1.19l-0.47-.51c-4.44-4.87-9-9.9-9.47-17.17-0.33-5.5,1-9.85,3-12.84A6.9,6.9,0,0,0,139,166.67Z"/><path class="e" d="M154,173.7c0.14,1.85,2.44,5.26,5.11,9,0.21-.32.44-0.63,0.66-1,1.37-1.93,2.91-4.12,3.18-7.31,0.45-5.4-1.94-7.11-4.35-8.07a5.27,5.27,0,0,0-3.59.46l0,0,0.11-.08S153.56,168.3,154,173.7Z"/><path class="c" d="M117.32,166.22c-5.17,0-10.17,5.87-12.45,11.71-2.48,6.35-1.74,13.58,2.21,21.48,1.71,3.43,6.66,12.26,11,19.85,0-6.15,1.57-11.51,4.45-15.48-2.76-2.87-10.31-11.64-10.06-21.35,0.22-8.3,5-13.22,8.38-16a32.24,32.24,0,0,0-3.42-.25h-0.07Z"/><path class="c" d="M200.08,253.95a99,99,0,0,1-14.61-8.21c-7.27-4.9-11-12.19-12.89-18.1a24.06,24.06,0,0,1-4.05,6.89,2,2,0,0,1,.16.53c0,0.18,1.83,11.25,16.46,21.36a28.47,28.47,0,0,1,7.12,7h0A17.75,17.75,0,0,1,200.08,253.95Z"/><path class="d" d="M164.76,232.77c3.57-3.8,5.51-8.93,5.7-15,0-1.26,0-2.44-.09-3.56-0.84-10.06-7.77-19.76-13.36-27.58-3.77-5.27-6.75-9.44-7-12.66a16.83,16.83,0,0,1,.86-7.75,10,10,0,0,0-3,0c-3.4.44-6.78,5.61-6.33,13.2,0.35,5.86,4.28,10.16,8.44,14.71,4.93,5.4,10,11,9.63,19.54a13.1,13.1,0,0,1-.72,4.52,13.57,13.57,0,0,1-7.8,9.15,12.9,12.9,0,0,1-4.95,1,13.12,13.12,0,0,1-8.59-3.24,9.89,9.89,0,0,1-2.91-10.82c0.83-2.57,2.77-5.26,5.26-5.49a2,2,0,0,1,2.16,1.81c0.1,1.1-.71,1.59-1.81,2.17a5.43,5.43,0,0,0-2,3.44,5.87,5.87,0,0,0,1.92,5.87,9,9,0,0,0,9.4,1.58,8.72,8.72,0,0,0,2-1.17,1.68,1.68,0,0,1,.18-0.2,12,12,0,0,0,3.86-8.37c0-.13,0-0.26,0-0.39a7.58,7.58,0,0,0-.11-1c-1.94-11-10.8-12.82-17.89-12.42l-1.22.11a14.86,14.86,0,0,0-9.85,4.8c-3.35,3.8-4.93,9.76-4.45,16.78,0.61,8.89,6.85,18.39,22.54,18.39C153.23,240.23,160.18,237.65,164.76,232.77Z"/><path class="b" d="M131.66,256.52c4.38-4.47,8.22-8.4,8.88-12.52a28.38,28.38,0,0,1-11.25-3.47,29.12,29.12,0,0,1,1.8,16.58Z"/><path class="c" d="M21,199.4H20.43c-0.93,0-1.83-.08-2.73-0.18-0.37.86-1.21,3.59-1.21,10.81a15.47,15.47,0,0,0,4.1,10.79c0-8.93,3.65-16.83,7.09-22.27A25,25,0,0,1,21,199.4Z"/><path class="g" d="M275,171.42c-6-5-12.17-10.1-15.19-19-3.69-10.83-2.23-18.06-1.29-20.95a22.28,22.28,0,0,1-5.56-.94c-1.75,1.95-5.83,7.67-5.43,18.3,0.49,12.57,9.64,21,17.72,28.51l2,1.82c1.51,1.41,2.79,2.57,3.92,3.59,5.38,4.87,7,6.34,7,12.06,0,3.5-1,6.18-3.07,8a9.52,9.52,0,0,1-6.22,2.15,8.43,8.43,0,0,1-1-.06,2,2,0,0,1,.55-4,5.88,5.88,0,0,0,4.12-1.16c1.12-1,1.68-2.64,1.68-4.92s-0.17-3.3-1.17-4.64c-0.24-.24-0.33-0.39-0.51-0.6-2.44-2.78-6.39-2.73-9.37-1.66a14.14,14.14,0,0,0-9.44,13.54c0.18,8.67,7.16,17.43,15.37,17.95s11.93-1.1,16.46-6.2c4.17-4.69,5.12-10.06,4.59-17.66C289.27,183.23,282.35,177.49,275,171.42Z"/><path class="c" d="M282.69,157.41c-3.35-2.92-6.81-5.93-9.78-10.32-5.08-7.54-5.94-13.26-5.76-16.74a25.61,25.61,0,0,1-4.32,1,2,2,0,0,1-.17.57c-0.06.13-3.22,7,1,19.3,2.65,7.79,8.14,12.34,14,17.17,6.44,5.34,13.06,10.84,15.57,20.83a4.66,4.66,0,0,0,.86-0.94c1.22-1.77,2.3-5.56.53-13.52C292.61,166,288,162,282.69,157.41Z"/><path class="c" d="M269.78,223.6c-0.43,0-.84,0-1.24,0-6.81-.41-13.28-5.76-16.58-12.72a19.34,19.34,0,0,1-2.88,4.57c0.28,1.89,1.78,10.56,6.33,14,3.77,2.88,8.2,4.29,11.56,3.7a7.31,7.31,0,0,0,5-3.46,8.52,8.52,0,0,0,1.26-6.34A23.89,23.89,0,0,1,269.78,223.6Z"/><path class="b" d="M286.09,144.35c-4.57-5.63-9.65-11.9-11.71-17.69a23.31,23.31,0,0,1-2.92,1.87c-0.4,1.36-1.47,7.06,4.77,16.32a48.78,48.78,0,0,0,9.09,9.54,60.08,60.08,0,0,1,6.94,6.74c0.66-2.87,1-7.41-1.83-11.28C289.23,148.23,287.71,146.35,286.09,144.35Z"/><path class="b" d="M211.18,241.19c-3.87,2.82-9.13,4.61-16,4.61a21.64,21.64,0,0,1-2.31-.12,74.11,74.11,0,0,0,14.29,6.77l0.14,0.06c5.51,0.6,10.86,4.1,11.53,11.09,0.62,6.36-3.57,11.06-7.79,11.77-2.73.46-6.35-.76-7.54-5.69a2,2,0,0,1,3.88-.94c0.34,1.4,1.13,3,3,2.69,2.15-.36,4.9-3.15,4.48-7.45-0.54-5.59-5.36-7.57-9.31-7.57-3.31,0-9.19,3.59-10.42,12.06a30.61,30.61,0,0,1,2.58,12.86,12.23,12.23,0,0,0,1.93,2.07c3.28,2.78,8.05,3.82,13.46,2.94,11.65-1.92,17.8-10.5,16.87-23.56C229,249.15,213.24,242.05,211.18,241.19Z"/><path class="b" d="M248.75,232.67c-10.42-1.55-16.2-7.06-18-9.13a23.14,23.14,0,0,1-10.17-3,17.46,17.46,0,0,0,7.71,12.24c2.3,1.62,4.53,2.92,6.69,4.19,5.46,3.21,10.62,6.23,14.07,12.93a21.91,21.91,0,0,1,1.19,2.74c1.32,0,3.92-.6,6.9-4.21a9.34,9.34,0,0,0,1.83-9.2C257.62,235.77,254,233.45,248.75,232.67Z"/><path class="c" d="M246.64,254.53a17.4,17.4,0,0,0-1.17-2.84c-2.92-5.66-7.17-8.15-12.55-11.31-2.22-1.3-4.52-2.65-7-4.36a22.81,22.81,0,0,1-6.59-7,22.84,22.84,0,0,1-5,9.23c5.18,2.48,18.51,10.21,19.51,24.21a34.4,34.4,0,0,1-.56,9.45,13.9,13.9,0,0,0,7.21-2.5c2.73-1.82,8.2-6.54,6.29-14.12A2,2,0,0,1,246.64,254.53Z"/><path class="c" d="M282.51,86.09c-1.28-1.23-2.61-2.5-3.92-4a16,16,0,0,1-4.29-11.84,21.72,21.72,0,0,1-7-3.82c-2.18,2.92-.29,8.82,5.3,16.43A89.16,89.16,0,0,1,279,94.31c0.11,0.08-.09,0,0,0.14s1.74,1,7.85,7c0.44,0.44,1.67,2,2,2.42a13.72,13.72,0,0,0,.64-6.75C289,92.26,286.11,89.54,282.51,86.09Z"/><path class="d" d="M295.37,44.65a13,13,0,0,0-13.75-5.15c-3.11.76-5.12,2.78-5.53,5.56a14.08,14.08,0,0,0-.14,1.43c0.24,3.4,1.64,5.51,4,5.88,2,0.32,3.85-.79,4.09-1.7a2,2,0,0,1,3.86,1,7.29,7.29,0,0,1-7.19,5,10.92,10.92,0,0,1-1.28-.14,9,9,0,0,1-5.58-3.44,10.25,10.25,0,0,1-1.88-6.5,22.36,22.36,0,0,1,0-2.28c0.32-6.51,4.16-10.87,7.87-15.08,2.76-3.13,5.61-6.37,7.31-10.66,1.17-3,2-12.91.72-16.39C286,8.94,280,16.33,276,20.76,270.07,27.25,263.94,34,263.07,41c-1.07,8.54.53,15.57,4.61,20.33a17.78,17.78,0,0,0,13,6.12c6.63,0.18,12.32-3,15.23-8.49C298.36,54.29,298.12,48.46,295.37,44.65Z"/><path class="b" d="M285.27,83.21c1,0.94,1.95,1.87,2.86,2.83a19.71,19.71,0,0,0-.45-9.85A31,31,0,0,0,285.41,71a22.67,22.67,0,0,1-4.18.39h-0.66a21.64,21.64,0,0,1-2.33-.19,12.11,12.11,0,0,0,3.31,8.26C282.77,80.82,284,82,285.27,83.21Z"/><path class="c" d="M286,126.18c-1-1.25-2.2-2.66-3.5-4.4a23.32,23.32,0,0,1-1.83-3,18.34,18.34,0,0,1-3,4.82c1.19,5.44,6.9,12.49,11.53,18.2l1,1.23c1.17-1.06,2.63-3.56.8-9.05C290,130.94,288.39,129,286,126.18Z"/><path class="b" d="M181.41,259c-12.93-7.85-15-17.17-16.17-21.26a26.65,26.65,0,0,1-6.32,3.76,59.49,59.49,0,0,0,7,15.57c2.73,4.25,6.33,7.31,9.8,10.27,4.7,4,9.15,7.79,9.71,13.63a7.76,7.76,0,0,1-4.65,7.92,5.9,5.9,0,0,1-2.17.42A5.64,5.64,0,0,1,174.1,287a2,2,0,1,1,3.17-2.43,1.61,1.61,0,0,0,2,.61,3.75,3.75,0,0,0,2.14-3.82,8.93,8.93,0,0,0-1.33-3.83,2.18,2.18,0,0,1-.29-0.32,7.66,7.66,0,0,0-8.27-2.56c-3,1.06-6.28,5.07-6.34,10.31s1.24,8.45,4.33,11.12c4,3.49,9.33,3.38,12.78,2.58,5.66-1.32,10.53-6.59,11.82-13.39C195.67,277.28,193.46,266.31,181.41,259Z"/><path class="b" d="M280.75,100.89a45.61,45.61,0,0,1,1.31,11.44,2.09,2.09,0,0,1,.22.4,35.86,35.86,0,0,0,3.45,6.66c1.25,1.66,2.38,3,3.39,4.25l1.06,1.29a4.69,4.69,0,0,0,1.09-1.92c0.78-2.32-.07-11-6.59-18C283.21,103.41,281.94,102.22,280.75,100.89Z"/><path class="b" d="M51.82,184a30.94,30.94,0,0,0-3-13.48,57.64,57.64,0,0,1-4,6.76c-1.2,5.42-3.44,11.22-7.56,15.54-0.27.29-.55,0.56-0.84,0.83l0,0c-0.14.14-13.89,14.5-11.56,31,1.35,9.49,4.73,13.33,7.16,14.88a45.32,45.32,0,0,1,2.21-25c3-8,7.34-13.19,10.8-17.39C48.71,192.6,51.63,189.06,51.82,184Z"/><path class="b" d="M23.58,60.5C32,47.8,33.74,41.18,33.67,37.86a9.11,9.11,0,0,0-3.27-6.76c-0.25.73-.48,1.38-0.68,1.92-1.92,5.07-9.46,15.11-14,21.1l-0.88,1.17c-3.94,5.25-5.36,8.47-4,14.78a8.32,8.32,0,0,0,4.53,5.57A72.71,72.71,0,0,1,23.58,60.5Z"/><path class="c" d="M24.32,123.45c4.59,4.06,9.33,8.25,12.81,13.48A53.32,53.32,0,0,1,46,161.32a2,2,0,0,1,.11.5c0,0.13,0,.73.06,1.69s0.09,2.09.08,3.06c2.61-5.7,5.09-13.49,3.86-20.91-2.75-16.51-12-24.81-13.7-26.19-12.95-2.08-20.81-13.61-23-25.23a29,29,0,0,1-.49-4.87,14.71,14.71,0,0,0-3.62,9.7C9,109.88,16.44,116.47,24.32,123.45Z"/><path class="b" d="M173.08,270.33c-3.51-3-7.48-6.38-10.52-11.1a63,63,0,0,1-7.31-16c0.41,2.22.51,6-1.28,11.71-1.42,4.51-4.28,7.77-7.22,10.54h0.34a20.1,20.1,0,0,1,17.23,10.65,10.93,10.93,0,0,1,5.94-5.25A10.53,10.53,0,0,1,173.08,270.33Z"/><path class="c" d="M13.9,49.94C18.13,44.29,24.44,35.68,26,31.6c0.32-.83.82-2.25,1.32-4a2,2,0,0,1,.14-0.51c1.19-4.32,2.25-10.39.51-14.69-0.74-1.83-2.11-4.59-3.51-7.29,0.1,7.2-.93,16.79-6.16,23.11-8.51,10.3-9,12.63-7.43,17.43A8.47,8.47,0,0,0,13.9,49.94Z"/><path class="b" d="M34.38,190.05c6.82-7.16,7.74-19.62,7.8-25.16a49.11,49.11,0,0,0-8.38-25.75c-3.19-4.79-7.73-8.81-12.13-12.7S12.93,118.7,9.77,114a23.64,23.64,0,0,0-1.6,10c0.18,7.19,4.65,11,9.83,15.35a62.64,62.64,0,0,1,6.21,5.75c6.81,7.53,11.69,14.21,7.63,25.78a12.56,12.56,0,0,1-11.69,8.46H19.86c-3.61-.11-6.39-2.06-7.25-5.09a2,2,0,0,1,3.84-1.1c0.51,1.78,2.4,2.13,3.36,2.18a2.45,2.45,0,0,1,.32-0.1c1.32-.3,2.07-1.4,2.33-3,0.5-3,.42-7-4.25-10-3.56-2.33-8.57-2-13.46,1.62-4.2,3.06-6,11.57-3.83,18.34,2.7,8.55,10.11,13,19.6,13.2C26.24,195.52,30.89,193.71,34.38,190.05Z"/><path class="e" d="M14.15,27l1.06-1.3a19.93,19.93,0,0,0,3.45-6.55,16,16,0,0,1-3.92-2.64c-1.57-1.37-2.83-3.92-3.77-6.46a33.54,33.54,0,0,0-.34,8.53C11.09,23.49,12.93,25.91,14.15,27Z"/><path class="c" d="M15.15,157.12a13.92,13.92,0,0,1,5.95,2.39c4.79,3.67,5.92,7.91,5.37,12.86a8.65,8.65,0,0,0,1.62-2.79c3.34-9.54-.53-14.82-6.83-21.79a60.27,60.27,0,0,0-5.83-5.38c-1.33-1.13-2.68-2.27-4-3.48a14.09,14.09,0,0,0-2,8C9.52,153.45,13.47,156.2,15.15,157.12Z"/><path class="e" d="M127.36,248.48c-0.51-4.21-3.08-9.93-5.21-14.11a2.16,2.16,0,0,1-.33-0.43c-0.61-1.07-15-26.18-18.31-32.76-4.48-9-5.27-17.27-2.35-24.72a27.86,27.86,0,0,1,6.51-9.91,27.15,27.15,0,0,0-5.82,1c-8.53,2.31-13.39,15.26-13,23.15s5.62,18.93,13.57,35.11c6.05,12.31,10.26,21.38,11.31,28.76a25.85,25.85,0,0,1-.12,7.18c-1.62,7.77-6.16,10.2-8.73,11a11.07,11.07,0,0,1-3.09.44,10,10,0,0,1-7.1-2.77,6.19,6.19,0,0,1-1.68-6.3,2,2,0,1,1,3.82,1.17,2.24,2.24,0,0,0,.71,2.33,6.43,6.43,0,0,0,6.21,1.31c3-.87,5.07-3.69,6-7.95a16.71,16.71,0,0,0,.12-5.54c-0.49-1.84-2.43-6.66-9.45-8.1a16,16,0,0,0-12.84,3.43A19.57,19.57,0,0,0,80,265.21C79.38,276,83.86,288,98.17,289.31c11.21,1,17.44-6.9,18.89-9,1.13-7.14,3.52-11.34,8.55-16.78A34.89,34.89,0,0,0,127.36,248.48Z"/><path class="b" d="M76,265a23.58,23.58,0,0,1,9.12-17.43,23.14,23.14,0,0,1,3.82-2.4,17.67,17.67,0,0,0-10.68-2.12c-0.33,0-.65.11-1,0.18a18.45,18.45,0,0,0-3.71,1.47c-3.41,2.07-5.8,5.92-7,11.37-1.37,6.22-.67,11.46,2.08,15.57a20.44,20.44,0,0,0,9.38,7.2A32.6,32.6,0,0,1,76,265Z"/><path class="c" d="M56.72,242.22s-2.55.93-3.64,8.43c-0.57,3.94.1,7.17,2,9.57A13.31,13.31,0,0,0,62,264.48a29.18,29.18,0,0,1,.65-9.26,24.91,24.91,0,0,1,4-9.48A19,19,0,0,1,56.72,242.22Z"/><path class="e" d="M53.61,239.53c-2.82-3-5.7-7.88-5.83-15.37-0.23-12.67,6.3-19.39,12.06-25.32,4.15-4.28,7.75-8,7.9-13.18,0.26-8.37-7.57-19.29-7.64-19.39v0a30.18,30.18,0,0,1-6.88-7.17,52.51,52.51,0,0,1-2.27,6.83c0.41,0.69,5.24,8.93,4.88,18.25-0.25,6.42-3.7,10.62-7.7,15.48-3.45,4.19-7.35,8.93-10.16,16.28-6,15.7-1.49,30.83,4.39,34.76a9.15,9.15,0,0,0,6.58,1.49c0-.67.11-1.36,0.2-2.06C50,243.79,52,240.88,53.61,239.53Z"/><path class="g" d="M162.29,283.64c-0.74-9.66-9.31-14.17-15.2-14.17a9.06,9.06,0,0,0-6.56,2.89,10.42,10.42,0,0,0-2.64,5,1.84,1.84,0,0,1-.1.53,9,9,0,0,0-.12,1.78c0.13,3,.92,4.95,2.37,5.77,2.45,1.38,6.58,1.08,7.43-1,0.42-1,2.49-1,3-.08a2.7,2.7,0,0,1-.46,2.86c-1,1.55-6.89,4.53-11.68,1.81a9.65,9.65,0,0,1-5.07-9c0.33-8.75,4.48-11.83,8.28-15.2,3.49-3.09,7.11-6.29,8.61-11.05,1.7-5.39,1.42-8.62,1.11-10.06a40.67,40.67,0,0,1-6.62.54h-0.12a5.64,5.64,0,0,1-.15.9A19,19,0,0,1,140.3,253a52.32,52.32,0,0,1-7.1,7.61c-7,6.24-11.51,12.35-12.45,19.74-0.55,4.46-.28,11.46,4.52,17A21.36,21.36,0,0,0,142,304.75c12,0.11,19.35-6.83,20.28-17.41A32.72,32.72,0,0,0,162.29,283.64Z"/><path class="b" d="M216.42,221.64a17,17,0,0,0-.79-5.27c-0.12-.3-0.27-0.63-0.41-0.93a26.81,26.81,0,0,0-2.65-4.25,15.83,15.83,0,0,0-11.46-4.65A10.37,10.37,0,0,0,192,211.6c-1.93,3.85-1.67,8.9.11,11.89a5.8,5.8,0,0,0,.4.53,7.29,7.29,0,0,0,5,2.5c0.32,0,.65,0,1,0,2.74-.15,4.63-1.17,5.31-2.88a4.21,4.21,0,0,0-.75-4.27,2.21,2.21,0,0,0-2.47-.6,2,2,0,0,1-1.26-3.79,6.23,6.23,0,0,1,6.64,1.65,8.16,8.16,0,0,1,1.56,8.5c-1.28,3.19-4.48,5.15-8.8,5.39s-7.82-1.45-9.88-4.74c-0.09-.14-0.16-0.28-0.24-0.43l-0.14-.24-0.14-.27c-1.91-3.65-2.07-8.92-1.14-15,1-6.46,4.6-11.43,8.23-16.22,3.85-5.1,7.5-9.92,7.89-16.47,0.33-5.33-.57-8.23-3.28-9.69a18.45,18.45,0,0,0-3.36-1,17.28,17.28,0,0,0-4.62-.17l0.09,0.1c2.21,2.82,2.9,6.78,2.07,11.78-0.7,4.2-4.55,9.54-9,15.71-4.84,6.7-10.19,11.79-10.47,22.72a28.16,28.16,0,0,0,7.65,19.49,16.64,16.64,0,0,0,12.83,5.65C210.84,241.75,216.42,231.36,216.42,221.64Z"/><path class="b" d="M44,64.08a17.48,17.48,0,0,1-1.2,2.09,64.77,64.77,0,0,1-5,6.85c-2.59,3.26-5.39,7.39-6.55,11.14a15,15,0,0,1,6-5.5,22.32,22.32,0,0,1,9.09-2.23A14.51,14.51,0,0,0,47,69.49,8.49,8.49,0,0,0,44,64.08Z"/><path class="e" d="M60.09,93.14c-0.35-4.45-2.83-8.79-5.53-10.76a10.8,10.8,0,0,0-4.7-2.09,19.68,19.68,0,0,0-11,1.7,12.84,12.84,0,0,0-6.46,7.19,9.74,9.74,0,0,0,.79,7.8h0a7.46,7.46,0,0,0,4.64,3.46c2.48,0.56,4.68-.4,5.5-1.6a6.79,6.79,0,0,0,1.1-5.51A1.86,1.86,0,0,1,45.67,91,1.85,1.85,0,0,1,48,92.22,10.54,10.54,0,0,1,46.41,101a8.58,8.58,0,0,1-7.11,3.37,10.2,10.2,0,0,1-2.27-.25c-2.35-.53-7.8-2.74-9.26-12a21.69,21.69,0,0,1,.54-9.86,29.37,29.37,0,0,1,3.82-7.87c0.9-1.25,1.85-2.45,2.8-3.64,1.27-1.6,2.55-3.22,3.74-5,2.32-4.38,2.36-8.46-.2-13.68a15.74,15.74,0,0,0-3-4.68A90.39,90.39,0,0,1,26.9,62.71C23.31,68.1,14.3,80.51,17.37,94c2.58,11.33,10.42,22.27,24.08,21.83a18.49,18.49,0,0,0,9.25-2.61,2,2,0,0,1,.36-0.23,15.94,15.94,0,0,0,3.63-3.06A21.31,21.31,0,0,0,60.09,93.14Z"/></svg>