<?xml version="1.0" encoding="utf-8"?>
<!-- Generator: Adobe Illustrator 19.2.1, SVG Export Plug-In . SVG Version: 6.00 Build 0)  -->
<svg version="1.1" id="Layer_1" xmlns="http://www.w3.org/2000/svg" xmlns:xlink="http://www.w3.org/1999/xlink" x="0px" y="0px" viewBox="0 0 263.5 297.6" style="enable-background:new 0 0 263.5 297.6;" xml:space="preserve"
	>
<style type="text/css">
	.st0{fill:#435685;}
	.st1{fill:url(#SVGID_1_);}
	.st2{fill:#EF6537;}
	.st3{fill:#CE4B30;}
	.st4{fill:#BA3E2A;}
	.st5{fill:#5C717C;}
	.st6{fill:#405892;}
	.st7{fill:#474F59;}
	.st8{fill:#FAD26D;}
	.st9{fill:url(#SVGID_2_);}
	.st10{fill:url(#SVGID_3_);}
	.st11{fill:#00165E;}
	.st12{fill:#E5E6E7;}
	.st13{fill:#BBBDBF;}
	.st14{fill:#BFC7CC;}
	.st15{fill:#85DCDC;}
</style>
<path class="st0" d="M242.7,0H20.8C9.3,0,0,9.3,0,20.8v179.5c0,7.8,8,14.7,12.8,18.1l103.7,74.7c8.7,5.9,20.2,6,29,0.1l105.2-74.8
	c7.4-5.3,12.8-15.8,12.8-24.9V20.8C263.5,9.3,254.2,0,242.7,0L242.7,0z"/>
<title>frequent-flyer</title>
<radialGradient id="SVGID_1_" cx="131.74" cy="151.1943" r="130.1628" gradientTransform="matrix(1 0 0 -1 0 299.99)" gradientUnits="userSpaceOnUse">
	<stop  offset="0" style="stop-color:#102E77"/>
	<stop  offset="2.000000e-02" style="stop-color:#102E76"/>
	<stop  offset="0.65" style="stop-color:#0E2157"/>
	<stop  offset="1" style="stop-color:#0D1C4B"/>
</radialGradient>
<path class="st1" d="M242.7,10.4H20.8c-5.7,0-10.4,4.7-10.4,10.4v179.5c0,2,3.8,6.4,8.4,9.7l103.7,74.7c5.1,3.3,11.7,3.4,16.9,0
	l105.2-74.8c4.7-3.3,8.5-10.7,8.5-16.4V20.8C253.1,15,248.4,10.4,242.7,10.4z"/>
<ellipse transform="matrix(0.7071 -0.7071 0.7071 0.7071 -33.9561 180.653)" class="st2" cx="201.1" cy="131.3" rx="16.8" ry="16.8"/>
<path class="st3" d="M213,143.2c1.1-1.1,2-2.3,2.7-3.6h-15.3c-1.2,0-2.1,0.9-2.1,2.1c0,1.2,0.9,2.1,2.1,2.1c0,0,0,0,0,0h11.9
	C212.5,143.6,212.8,143.4,213,143.2z"/>
<ellipse transform="matrix(0.7071 -0.7071 0.7071 0.7071 -31.6358 187.3511)" class="st3" cx="210.3" cy="131.9" rx="2.1" ry="2.1"/>
<path class="st3" d="M201.2,131.2c0-1.1-0.9-2.1-2.1-2.1H199c-0.8,0.1-1.6-0.5-1.7-1.3c0.1-0.7,0.6-1.2,1.3-1.2h8.1c1.1,0,2-0.9,2-2
	s-0.9-2-2-2h-11.5c-0.9,0-1.7-0.8-1.7-1.7s0.8-1.7,1.7-1.7h0.5c1.1,0,2.1-0.9,2.1-2.1c0-0.8-0.5-1.6-1.3-1.9
	c-2.7,0.8-5.1,2.2-7.1,4.2c0.8,0.4,1.2,1.4,0.8,2.3c-0.3,0.6-0.9,1-1.5,1l0,0l0,0c-1.1,0.1-2,1-1.9,2.1s1,2,2.1,1.9h0.2
	c0.7,0,1.2,0.6,1.3,1.2c-0.1,0.8-0.9,1.4-1.7,1.3h-4.1c-0.2,1.4-0.2,2.8,0,4.2h14.7C200.3,133.3,201.2,132.4,201.2,131.2z"/>
<path class="st3" d="M205.3,141.8c-9.2,0-16.7-7.4-16.8-16.7c0-2,0.4-4.1,1.1-6c-6.7,6.3-7.1,16.9-0.7,23.7
	c6.3,6.7,16.9,7.1,23.7,0.7c1.9-1.8,3.3-3.9,4.2-6.3C213.6,140.2,209.5,141.8,205.3,141.8z"/>
<path class="st4" d="M188.6,122.6L188.6,122.6L188.6,122.6c-1.1,0-2,0.9-2,2s0.9,2,2,2c0-0.5-0.1-1-0.1-1.5c0-0.8,0.1-1.7,0.2-2.5
	L188.6,122.6z"/>
<path class="st4" d="M189,129.1c-0.1,0-0.3,0-0.4,0.1h-4.1v0.1c0,0.3-0.1,0.5-0.1,0.8s0,0.4,0,0.6c0,0.5,0,1,0,1.5
	c0,0.1,0,0.2,0,0.2c0,0.3,0,0.6,0.1,0.9h6.2C189.9,132,189.4,130.6,189,129.1z"/>
<path class="st4" d="M189.5,119.5c0-0.1,0.1-0.2,0.1-0.3l-0.2,0.2L189.5,119.5z"/>
<path class="st4" d="M215.6,139.6h-2.1c-4.5,2.6-10,3-14.9,0.9c-0.2,0.3-0.4,0.8-0.4,1.2c0,1.2,0.9,2.1,2.1,2.1h11.9
	C213.6,142.6,214.7,141.2,215.6,139.6z"/>
<path class="st5" d="M74.1,219.8c-0.1,2.1-1.7,3.8-3.8,3.8c2.1,0.1,3.8,1.7,3.8,3.8c0.1-2.1,1.7-3.8,3.8-3.8
	C75.8,223.6,74.1,221.9,74.1,219.8z"/>
<path class="st6" d="M149.3,27.8c-0.1,2.8-2.3,5.1-5.1,5.2c2.8,0.1,5.1,2.3,5.1,5.2c0.1-2.8,2.3-5.1,5.1-5.2
	C151.6,32.9,149.3,30.7,149.3,27.8z"/>
<path class="st6" d="M210.9,68.8c-0.1,2.4-2,4.4-4.4,4.4c2.4,0.1,4.4,2,4.4,4.4c0.1-2.4,2-4.4,4.4-4.4
	C212.9,73.2,211,71.2,210.9,68.8z"/>
<path class="st6" d="M233.1,114.2c-0.1,2.8-2.3,5.1-5.1,5.1c2.8,0.1,5,2.3,5.1,5.1c0.1-2.8,2.3-5.1,5.1-5.1
	C235.4,119.2,233.2,117,233.1,114.2z"/>
<path class="st6" d="M36,48c-0.3,3.3-2.2,5.2-5.6,5.6c3.4,0.4,5.3,2.3,5.7,5.7c0.4-3.4,2.3-5.3,5.7-5.7C38.3,53.2,36.4,51.3,36,48z"
	/>
<path class="st6" d="M149.3,115.2c-0.1,2.2-1.8,3.9-4,4c2.2,0.1,3.9,1.8,4,4c0.1-2.2,1.8-3.9,4-4
	C151.1,119.2,149.4,117.4,149.3,115.2z"/>
<path class="st6" d="M78.8,57.7c-0.5,0.1-1.1-0.2-1.2-0.8c-0.1-0.4,0.1-0.9,0.5-1.1L107.3,34c0.5-0.3,1.1-0.3,1.5,0.2
	s0.3,1.1-0.2,1.5L79.4,57.5C79.2,57.6,79,57.7,78.8,57.7z"/>
<path class="st6" d="M66.6,67c-0.5,0.1-1.1-0.2-1.2-0.8c-0.1-0.4,0.1-0.9,0.5-1.1l8-6c0.5-0.3,1.1-0.3,1.5,0.2s0.3,1.1-0.2,1.5l-8,6
	C67,66.9,66.8,67,66.6,67z"/>
<path class="st6" d="M57.8,74c-0.5,0.1-1.1-0.2-1.2-0.8c-0.1-0.4,0.1-0.9,0.5-1.1l4-3c0.5-0.3,1.1-0.3,1.5,0.2s0.3,1.1-0.2,1.5l-4,3
	C58.2,73.9,58,74,57.8,74z"/>
<circle class="st6" cx="113" cy="31.5" r="2.3"/>
<circle class="st7" cx="104.1" cy="216.3" r="13.6"/>
<path class="st8" d="M188.6,47.5c-40.2,0.7-121.1,19.4-178.3,76.3v72.9l4.4,1.8l53.1-35.6C92,67,188.6,53,188.6,53V47.5z"/>
<linearGradient id="SVGID_2_" gradientUnits="userSpaceOnUse" x1="7.6029" y1="70.6664" x2="111.5029" y2="186.3364" gradientTransform="matrix(1 0 0 -1 0 299.99)">
	<stop  offset="0" style="stop-color:#FBD982"/>
	<stop  offset="1" style="stop-color:#F8BF2F"/>
</linearGradient>
<path class="st9" d="M188.6,53v-3.2C141.2,57.5,52,98.2,10.4,190.5v9.8l0,0c0,2,3.8,6.4,8.4,9.7l10.8,7.8l69.7-38.1
	C99.3,78.4,188.6,53,188.6,53z"/>
<path class="st0" d="M210.3,196.1c-10.1,5.8-23,2.2-28.8-7.9c-1.3-2.3-2.2-4.9-2.5-7.5c-53.1-18.5-112.2-4.7-151.5,35.6l95,68.4
	c5.1,3.3,11.7,3.4,16.9,0l95.8-68.1C227.7,208.9,219.3,202,210.3,196.1z"/>
<linearGradient id="SVGID_3_" gradientUnits="userSpaceOnUse" x1="100.36" y1="63.0894" x2="289.04" y2="63.0894" gradientTransform="matrix(1 0 0 -1 0 299.99)">
	<stop  offset="0" style="stop-color:#435685"/>
	<stop  offset="1" style="stop-color:#0D1C4B"/>
</linearGradient>
<path class="st10" d="M112.7,186.6c-27.6,0-54.7,7.9-78,22.8c-2.5,2.2-4.9,4.5-7.2,6.9l95,68.4c5.1,3.3,11.7,3.4,16.9,0l76.8-54.6
	C189,202.3,151.6,186.6,112.7,186.6z"/>
<path class="st11" d="M172.4,239c-12.8,0-23.1,10.3-23.1,23.1c0,4.2,1.2,8.4,3.4,12l37.5-26.7C185.8,242.1,179.3,239,172.4,239z"/>
<path class="st12" d="M219.1,46.6L219.1,46.6c-0.7-1.2-9.2-5.4-18.9-4.1c-3.5,0.4-7,1-10.5,1.9c-1.8,0.7-2.9,1.3-2.4,6.1l0,0l0,0
	l0,0c0.6,4.8,1.8,5.1,3.8,5.3c3.5,0,7.1-0.3,10.6-0.7C211.5,54.1,218.8,48,219.1,46.6z"/>
<path class="st13" d="M195.6,55.1l2.2-0.9L187.6,52c0.7,3.4,1.8,3.7,3.5,3.8c0.9,0.1,1.8,0.1,2.6,0L195.6,55.1z"/>
<path class="st12" d="M219.1,46.6L219.1,46.6c-0.7-1.2-9.2-5.4-18.9-4.1c-3.5,0.4-7,1-10.5,1.9c-1.8,0.7-2.9,1.3-2.4,6.1l0,0l0,0
	l0,0c0.6,4.8,1.8,5.1,3.8,5.3c3.5,0,7.1-0.3,10.6-0.7C211.5,54.1,218.8,48,219.1,46.6z"/>
<path class="st12" d="M196.6,44.2c0,0-2.9-4.2-10.6-3.2l-6.8,0.8V42c0.1,1.1,1.1,2,2.3,1.9c2.8-0.2,5.5,0.1,6.4,1.8L196.6,44.2z"/>
<path class="st12" d="M197.8,54.3c0,0-1.8,4.8-9.5,5.7l-6.8,0.8v-0.2c-0.1-1.1,0.6-2.2,1.7-2.4c2.8-0.5,5.3-1.4,5.8-3.3L197.8,54.3z
	"/>
<path class="st14" d="M202.2,44.5c-2-0.2-4.1-0.2-6.1,0l0.4-0.3l0,0c0,0-4.1-3.2-11.8-2.3l-5.5,0.7c0.4,0.8,1.2,1.3,2.1,1.3
	c2.8-0.2,5.5,0.1,6.4,1.8l0,0c-0.5,1.2-0.7,2.5-0.5,3.7c0,0,0,0.1,0,0.1l0,0c0,0.1,0,0.2,0,0.3V50l0,0c0,0.2,0,0.3,0.1,0.5l0,0l0,0
	l0,0c0.3,2.5,0.8,3.8,1.5,4.5c-0.4,1.4-1.8,2.2-3.6,2.8l0,0l-0.7,0.2c4.1,0.6,8.2-0.8,10.3-3.1c1.7-0.1,3.9-0.4,6.9-0.8
	c4.9-0.6,9.6-2.4,13.6-5.5C214.6,48.2,213.1,45.5,202.2,44.5z"/>
<path class="st15" d="M211.8,44.5c0.1-1.7-1.5-3.3-3.7-3.6c-2-0.3-3.9,0.6-4.4,2C206.4,43.2,209.1,43.7,211.8,44.5z"/>
<path class="st12" d="M196.7,49.4l0.1,0.5c0,0.3-0.2,0.6-0.5,0.6l-15,1.8c-0.3,0-0.6-0.2-0.6-0.5l-0.1-0.5c0-0.3,0.2-0.6,0.5-0.6
	l15-1.8C196.4,48.9,196.7,49.1,196.7,49.4z"/>
<circle class="st11" cx="92.6" cy="224.4" r="13.6"/>
</svg>
