<svg xmlns="http://www.w3.org/2000/svg" viewBox="0 0 263.5 297.6" enable-background="new 0 0 263.5 297.6"><style type="text/css">.st0{fill:#435685;} .st1{fill:url(#SVGID_1_);} .st2{fill:#EF6537;} .st3{fill:#CE4B30;} .st4{fill:#BA3E2A;} .st5{fill:#5C717C;} .st6{fill:#405892;} .st7{fill:#474F59;} .st8{fill:#FAD26D;} .st9{fill:url(#SVGID_2_);} .st10{fill:url(#SVGID_3_);} .st11{fill:#00165E;} .st12{fill:#E5E6E7;} .st13{fill:#BBBDBF;} .st14{fill:#BFC7CC;} .st15{fill:#85DCDC;}</style><path class="st0" d="M242.7 0H20.8C9.3 0 0 9.3 0 20.8v179.5c0 7.8 8 14.7 12.8 18.1l103.7 74.7c8.7 5.9 20.2 6 29 .1l105.2-74.8c7.4-5.3 12.8-15.8 12.8-24.9V20.8c0-11.5-9.3-20.8-20.8-20.8z"/><title>frequent-flyer</title><radialGradient id="SVGID_1_" cx="131.74" cy="151.194" r="130.163" gradientTransform="matrix(1 0 0 -1 0 299.99)" gradientUnits="userSpaceOnUse"><stop offset="0" stop-color="#102E77"/><stop offset=".02" stop-color="#102E76"/><stop offset=".65" stop-color="#0E2157"/><stop offset="1" stop-color="#0D1C4B"/></radialGradient><path class="st1" d="M242.7 10.4H20.8c-5.7 0-10.4 4.7-10.4 10.4v179.5c0 2 3.8 6.4 8.4 9.7l103.7 74.7c5.1 3.3 11.7 3.4 16.9 0l105.2-74.8c4.7-3.3 8.5-10.7 8.5-16.4V20.8c0-5.8-4.7-10.4-10.4-10.4z"/><ellipse transform="matrix(.707 -.707 .707 .707 -33.956 180.653)" class="st2" cx="201.1" cy="131.3" rx="16.8" ry="16.8"/><path class="st3" d="M213 143.2c1.1-1.1 2-2.3 2.7-3.6h-15.3c-1.2 0-2.1.9-2.1 2.1 0 1.2.9 2.1 2.1 2.1h11.9c.2-.2.5-.4.7-.6z"/><ellipse transform="matrix(.707 -.707 .707 .707 -31.636 187.351)" class="st3" cx="210.3" cy="131.9" rx="2.1" ry="2.1"/><path class="st3" d="M201.2 131.2c0-1.1-.9-2.1-2.1-2.1h-.1c-.8.1-1.6-.5-1.7-1.3.1-.7.6-1.2 1.3-1.2h8.1c1.1 0 2-.9 2-2s-.9-2-2-2h-11.5c-.9 0-1.7-.8-1.7-1.7s.8-1.7 1.7-1.7h.5c1.1 0 2.1-.9 2.1-2.1 0-.8-.5-1.6-1.3-1.9-2.7.8-5.1 2.2-7.1 4.2.8.4 1.2 1.4.8 2.3-.3.6-.9 1-1.5 1-1.1.1-2 1-1.9 2.1s1 2 2.1 1.9h.2c.7 0 1.2.6 1.3 1.2-.1.8-.9 1.4-1.7 1.3h-4.1c-.2 1.4-.2 2.8 0 4.2h14.7c1-.1 1.9-1 1.9-2.2zM205.3 141.8c-9.2 0-16.7-7.4-16.8-16.7 0-2 .4-4.1 1.1-6-6.7 6.3-7.1 16.9-.7 23.7 6.3 6.7 16.9 7.1 23.7.7 1.9-1.8 3.3-3.9 4.2-6.3-3.2 3-7.3 4.6-11.5 4.6z"/><path class="st4" d="M188.6 122.6c-1.1 0-2 .9-2 2s.9 2 2 2c0-.5-.1-1-.1-1.5 0-.8.1-1.7.2-2.5h-.1zM189 129.1c-.1 0-.3 0-.4.1h-4.1v.1c0 .3-.1.5-.1.8V132.4c0 .3 0 .6.1.9h6.2c-.8-1.3-1.3-2.7-1.7-4.2zM189.5 119.5c0-.1.1-.2.1-.3l-.2.2.1.1zM215.6 139.6h-2.1c-4.5 2.6-10 3-14.9.9-.2.3-.4.8-.4 1.2 0 1.2.9 2.1 2.1 2.1h11.9c1.4-1.2 2.5-2.6 3.4-4.2z"/><path class="st5" d="M74.1 219.8c-.1 2.1-1.7 3.8-3.8 3.8 2.1.1 3.8 1.7 3.8 3.8.1-2.1 1.7-3.8 3.8-3.8-2.1 0-3.8-1.7-3.8-3.8z"/><path class="st6" d="M149.3 27.8c-.1 2.8-2.3 5.1-5.1 5.2 2.8.1 5.1 2.3 5.1 5.2.1-2.8 2.3-5.1 5.1-5.2-2.8-.1-5.1-2.3-5.1-5.2zM210.9 68.8c-.1 2.4-2 4.4-4.4 4.4 2.4.1 4.4 2 4.4 4.4.1-2.4 2-4.4 4.4-4.4-2.4 0-4.3-2-4.4-4.4zM233.1 114.2c-.1 2.8-2.3 5.1-5.1 5.1 2.8.1 5 2.3 5.1 5.1.1-2.8 2.3-5.1 5.1-5.1-2.8-.1-5-2.3-5.1-5.1zM36 48c-.3 3.3-2.2 5.2-5.6 5.6 3.4.4 5.3 2.3 5.7 5.7.4-3.4 2.3-5.3 5.7-5.7-3.5-.4-5.4-2.3-5.8-5.6zM149.3 115.2c-.1 2.2-1.8 3.9-4 4 2.2.1 3.9 1.8 4 4 .1-2.2 1.8-3.9 4-4-2.2 0-3.9-1.8-4-4zM78.8 57.7c-.5.1-1.1-.2-1.2-.8-.1-.4.1-.9.5-1.1L107.3 34c.5-.3 1.1-.3 1.5.2s.3 1.1-.2 1.5L79.4 57.5c-.2.1-.4.2-.6.2zM66.6 67c-.5.1-1.1-.2-1.2-.8-.1-.4.1-.9.5-1.1l8-6c.5-.3 1.1-.3 1.5.2s.3 1.1-.2 1.5l-8 6c-.2.1-.4.2-.6.2zM57.8 74c-.5.1-1.1-.2-1.2-.8-.1-.4.1-.9.5-1.1l4-3c.5-.3 1.1-.3 1.5.2s.3 1.1-.2 1.5l-4 3c-.2.1-.4.2-.6.2z"/><circle class="st6" cx="113" cy="31.5" r="2.3"/><circle class="st7" cx="104.1" cy="216.3" r="13.6"/><path class="st8" d="M188.6 47.5c-40.2.7-121.1 19.4-178.3 76.3v72.9l4.4 1.8 53.1-35.6C92 67 188.6 53 188.6 53v-5.5z"/><linearGradient id="SVGID_2_" gradientUnits="userSpaceOnUse" x1="7.603" y1="70.666" x2="111.503" y2="186.336" gradientTransform="matrix(1 0 0 -1 0 299.99)"><stop offset="0" stop-color="#FBD982"/><stop offset="1" stop-color="#F8BF2F"/></linearGradient><path class="st9" d="M188.6 53v-3.2C141.2 57.5 52 98.2 10.4 190.5v9.8c0 2 3.8 6.4 8.4 9.7l10.8 7.8 69.7-38.1C99.3 78.4 188.6 53 188.6 53z"/><path class="st0" d="M210.3 196.1c-10.1 5.8-23 2.2-28.8-7.9-1.3-2.3-2.2-4.9-2.5-7.5-53.1-18.5-112.2-4.7-151.5 35.6l95 68.4c5.1 3.3 11.7 3.4 16.9 0l95.8-68.1c-7.5-7.7-15.9-14.6-24.9-20.5z"/><linearGradient id="SVGID_3_" gradientUnits="userSpaceOnUse" x1="100.36" y1="63.089" x2="289.04" y2="63.089" gradientTransform="matrix(1 0 0 -1 0 299.99)"><stop offset="0" stop-color="#435685"/><stop offset="1" stop-color="#0D1C4B"/></linearGradient><path class="st10" d="M112.7 186.6c-27.6 0-54.7 7.9-78 22.8-2.5 2.2-4.9 4.5-7.2 6.9l95 68.4c5.1 3.3 11.7 3.4 16.9 0l76.8-54.6c-27.2-27.8-64.6-43.5-103.5-43.5z"/><path class="st11" d="M172.4 239c-12.8 0-23.1 10.3-23.1 23.1 0 4.2 1.2 8.4 3.4 12l37.5-26.7c-4.4-5.3-10.9-8.4-17.8-8.4z"/><path class="st12" d="M219.1 46.6c-.7-1.2-9.2-5.4-18.9-4.1-3.5.4-7 1-10.5 1.9-1.8.7-2.9 1.3-2.4 6.1.6 4.8 1.8 5.1 3.8 5.3 3.5 0 7.1-.3 10.6-.7 9.8-1 17.1-7.1 17.4-8.5z"/><path class="st13" d="M195.6 55.1l2.2-.9-10.2-2.2c.7 3.4 1.8 3.7 3.5 3.8.9.1 1.8.1 2.6 0l1.9-.7z"/><path class="st12" d="M219.1 46.6c-.7-1.2-9.2-5.4-18.9-4.1-3.5.4-7 1-10.5 1.9-1.8.7-2.9 1.3-2.4 6.1.6 4.8 1.8 5.1 3.8 5.3 3.5 0 7.1-.3 10.6-.7 9.8-1 17.1-7.1 17.4-8.5zM196.6 44.2S193.7 40 186 41l-6.8.8v.2c.1 1.1 1.1 2 2.3 1.9 2.8-.2 5.5.1 6.4 1.8l8.7-1.5zM197.8 54.3s-1.8 4.8-9.5 5.7l-6.8.8v-.2c-.1-1.1.6-2.2 1.7-2.4 2.8-.5 5.3-1.4 5.8-3.3l8.8-.6z"/><path class="st14" d="M202.2 44.5c-2-.2-4.1-.2-6.1 0l.4-.3s-4.1-3.2-11.8-2.3l-5.5.7c.4.8 1.2 1.3 2.1 1.3 2.8-.2 5.5.1 6.4 1.8-.5 1.2-.7 2.5-.5 3.7V50c0 .2 0 .3.1.5.3 2.5.8 3.8 1.5 4.5-.4 1.4-1.8 2.2-3.6 2.8l-.7.2c4.1.6 8.2-.8 10.3-3.1 1.7-.1 3.9-.4 6.9-.8 4.9-.6 9.6-2.4 13.6-5.5-.7-.4-2.2-3.1-13.1-4.1z"/><path class="st15" d="M211.8 44.5c.1-1.7-1.5-3.3-3.7-3.6-2-.3-3.9.6-4.4 2 2.7.3 5.4.8 8.1 1.6z"/><path class="st12" d="M196.7 49.4l.1.5c0 .3-.2.6-.5.6l-15 1.8c-.3 0-.6-.2-.6-.5l-.1-.5c0-.3.2-.6.5-.6l15-1.8c.3 0 .6.2.6.5z"/><circle class="st11" cx="92.6" cy="224.4" r="13.6"/></svg>