<svg xmlns="http://www.w3.org/2000/svg" width="330.12" height="46.93" viewBox="0 0 330.12 46.93"><defs><style>.a{fill:#e8e8e8;stroke:#e8e8e8;stroke-miterlimit:10;stroke-width:2px;}</style></defs><title>Innovation-Studio-text</title><path class="a" d="M39.4 40.87c7.29 0 10.69-2.56 10.69-7.17s-3.46-6.91-11.65-7.62l-21.7-1.79C7 23.52 1.89 20 1.89 12.77c0-7.87 6.21-11.2 14.59-11.2h35.59v4.48h-36C10.28 6.05 7 8.1 7 12.65 7 17 10 19 18 19.75l21.12 1.79c10.37.9 16 4.16 16 12 0 7.3-4.93 11.84-16 11.84H1v-4.51h38.4zM83.81 45.35V6.06H60.39V1.58h51.77v4.48H88.74v39.29h-4.93zM179 1.57l-17.69 36.55c-2.37 4.93-5.7 7.81-11.71 7.81s-9.34-2.75-11.77-7.81L120.1 1.58h5.5l17.15 35.13c1.47 3.07 3.46 4.48 6.85 4.48s5.25-1.41 6.78-4.48l17.16-35.13H179zM187.37 1.57h35.45c14.78 0 20.61 7.36 20.61 21.89 0 14.78-6 21.89-20.61 21.89h-35.45V1.57zm35.45 4.86h-30.53v34h30.53c11.9 0 15.55-5.7 15.55-17s-3.58-16.99-15.55-16.99zM258.79 1.57v43.78h-5V1.57h5zM329.12 23.46c0 17.92-10.82 22.46-30 22.46S269 41.38 269 23.46 279.91 1 299.11 1s30.01 4.54 30.01 22.46zm-5.06 0c0-15.1-9-17.73-25-17.73s-25 2.62-25 17.73 9 17.79 25 17.79 25-2.68 25-17.79z"/></svg>